# xmcd
#
# Track frame offsets: 
#        150
#        20110
#        33867
#        54507
#        71681
#        87982
#        111393
#        129632
#        148407
#        168421
#
# Disc length: 2467 seconds
#
# Revision: 0
# Processed by: cddbd v1.5.2PL0 Copyright (c) Steve Scherf et al.
# Submitted via: ExactAudioCopyFreeDBPlugin 1.0
#
DISCID=9409a10a
DTITLE=Mickaëlla - Je confesse l'Amour
DYEAR=2011
DGENRE=Country
TTITLE0=Unknown Artist - Je ne ferais pas de détails
TTITLE1=Unknown Artist - Melody la vi
TTITLE2=Unknown Artist - Fan de toi
TTITLE3=Unknown Artist - A part toi
TTITLE4=Unknown Artist - Mi amor
TTITLE5=Unknown Artist - Killing the softy whith his song
TTITLE6=Unknown Artist - C'est fini
TTITLE7=Unknown Artist - Je confesse l'amour
TTITLE8=Unknown Artist - Baiser de céline
TTITLE9=Unknown Artist - A tout jamais
EXTD=
EXTT0=
EXTT1=
EXTT2=
EXTT3=
EXTT4=
EXTT5=
EXTT6=
EXTT7=
EXTT8=
EXTT9=
PLAYORDER=
